<svg width="14" height="14" viewBox="0 0 14 14" fill="none" xmlns="http://www.w3.org/2000/svg">
    <path fill-rule="evenodd" clip-rule="evenodd"
          d="M7 1C7.13261 1 7.25979 1.05268 7.35355 1.14645C7.44732 1.24021 7.5 1.36739 7.5 1.5V6.5H12.5C12.6326 6.5 12.7598 6.55268 12.8536 6.64645C12.9473 6.74021 13 6.86739 13 7C13 7.13261 12.9473 7.25979 12.8536 7.35355C12.7598 7.44732 12.6326 7.5 12.5 7.5H7.5V12.5C7.5 12.6326 7.44732 12.7598 7.35355 12.8536C7.25979 12.9473 7.13261 13 7 13C6.86739 13 6.74021 12.9473 6.64645 12.8536C6.55268 12.7598 6.5 12.6326 6.5 12.5V7.5H1.5C1.36739 7.5 1.24021 7.44732 1.14645 7.35355C1.05268 7.25979 1 7.13261 1 7C1 6.86739 1.05268 6.74021 1.14645 6.64645C1.24021 6.55268 1.36739 6.5 1.5 6.5H6.5V1.5C6.5 1.36739 6.55268 1.24021 6.64645 1.14645C6.74021 1.05268 6.86739 1 7 1Z"
          fill="black" stroke="black"/>
</svg>
